<?xml version="1.0" encoding="utf-8"?>
<!-- Generator: Adobe Illustrator 25.0.0, SVG Export Plug-In . SVG Version: 6.00 Build 0)  -->
<svg version="1.1" id="Layer_1" xmlns="http://www.w3.org/2000/svg" xmlns:xlink="http://www.w3.org/1999/xlink" x="0px" y="0px"
	 viewBox="0 0 152.8 31.4" style="enable-background:new 0 0 152.8 31.4;" xml:space="preserve">
<style type="text/css">
	.st0{fill-rule:evenodd;clip-rule:evenodd;fill:#FFFFFF;}
	.st1{fill-rule:evenodd;clip-rule:evenodd;fill:#010066;}
	.st2{fill-rule:evenodd;clip-rule:evenodd;fill:#FE0000;}
	.st3{fill-rule:evenodd;clip-rule:evenodd;fill:#D1D2D4;}
</style>
<ellipse class="st0" cx="15.5" cy="15.7" rx="15.5" ry="15.7"/>
<path class="st1" d="M12.9,26.8c-0.8-0.3-1.7-0.7-2.4-1.2c-0.7-0.5-1.4-1-2.1-1.6c-0.6-0.6-1.2-1.2-1.7-1.9c-0.5-0.7-1-1.5-1.3-2.3
	C3.7,16,3.9,11.7,6,8.1C6.3,7.5,6.6,7,7,6.5l0.2-0.3L7.5,6c0.2-0.2,0.3-0.3,0.4-0.5c3.3-3.4,8.2-4.8,12.8-3.6
	c1.8,0.5,3.4,1.3,4.8,2.4c-0.5-0.5-1-1-1.6-1.5c-3.8-3-9-3.7-13.5-1.9C9.3,1.5,8.2,2.1,7.2,2.9C6.7,3.3,6.3,3.7,5.8,4.1
	C5.8,4.2,5.7,4.3,5.6,4.4C5.4,4.5,5.3,4.7,5.1,4.9C4.6,5.5,4.2,6.1,3.9,6.7c-3.7,6.5-1.5,14.8,5,18.5c0.8,0.5,1.6,0.8,2.5,1.1
	C11.8,26.5,12.4,26.7,12.9,26.8L12.9,26.8z"/>
<path class="st1" d="M23.9,11.3c-0.6,0-1.2,0.1-1.7,0.1c-1.3,0.1-2.7,0.4-4,0.7c-0.2,0.1-0.5,0.1-0.7,0.2c0,0,0,0-0.1,0L16,12.7
	c-0.5,0.2-1.1,0.4-1.6,0.6c-1,0.4-2,0.9-2.9,1.5l-1.3,0.9L9,16.6l-0.8,0.7c-0.1,0.1-0.2,0.1-0.2,0.2C8.3,17.4,9,17,9.1,17
	c0.2-0.1,0.4-0.2,0.6-0.3c0.2-0.1,0.4-0.2,0.7-0.3c0.2-0.2,2.5-1,2.9-1.1c1-0.3,2.1-0.6,3.2-0.8c0.1,0,0.1,0,0.2,0l1.3-0.2
	c1.1-0.2,2.2-0.3,3.3-0.3c1.1,0,2.2,0,3.3,0.2c0.4,0,0.9,0.1,1.3,0.2l0.8,0.2l0.7,0.2l0,0c0.1,0.5,0.2,1.1,0.2,1.6
	c0,0.6,0,1.2-0.1,1.8c-0.2,2.4-1.1,4.6-2.7,6.4l-0.1,0.1l-1,1c-1.3,1.1-2.7,2-4.3,2.5c-4.8,1.7-10.1,0.7-13.9-2.6
	c-1-0.8-1.8-1.8-2.6-2.9L2.6,22c-1.4-2.3-2.2-5-2.3-7.7c0-0.3,0-0.6,0-0.9c0-0.3,0-0.6,0-0.8c0,0-0.2,0.8-0.2,0.9
	C0,14.5,0,15.6,0,16.6c0.1,3.2,1.3,6.3,3.3,8.8L3.8,26c0,0.1,0.1,0.1,0.1,0.2l0.4,0.4l0.3,0.3c0.4,0.4,0.5,0.4,0.8,0.8
	c0.1,0.1,0.2,0.2,0.3,0.3c2.9,2.4,6.6,3.6,10.3,3.4c3.5-0.1,6.9-1.4,9.5-3.7l1.1-1.1l0.3-0.3l0.3-0.3l0.3-0.3c0.4-0.5,0.8-1,1.2-1.6
	c2-3.2,2.8-7,2.2-10.7c-0.1-0.6-0.2-1.2-0.4-1.8c-0.1-0.1-2.4-0.3-2.5-0.3c-0.9-0.1-1.8-0.1-2.7-0.1L23.9,11.3L23.9,11.3z"/>
<path class="st1" d="M104.2,16.3h2.2v12.8h4.1v2.1h-6.3V16.3z M100.8,23.4c-0.2-2.9-2.6-5.2-5.5-5.2c-3.1,0-5.5,2.5-5.5,5.5
	s2.5,5.5,5.5,5.5c0,0,0,0,0,0c2.9,0,5.3-2.3,5.5-5.2V23.4z M100.8,16.3h2.2v7c0,0.1,0,0.3,0,0.4s0,0.3,0,0.4v7h-2.2v-2.1l-0.1,0.1
	c-3,3-7.9,3-10.9,0c-3-2.9-3-7.7-0.1-10.7c0,0,0.1-0.1,0.1-0.1c3-3,7.9-3,10.9,0c0,0,0,0,0,0l0.1,0.1L100.8,16.3L100.8,16.3z
	 M79.8,24.6v4.5h1.9c0.8,0,1.5-0.2,2.1-0.6c0.5-0.4,0.8-1,0.7-1.6c0-1.9-1.6-2.3-3.2-2.3L79.8,24.6z M79.8,18.4v4.1h1.3
	c0.6,0,1.2-0.2,1.6-0.5c0.4-0.4,0.6-0.9,0.6-1.4c0-1.6-1-2.1-2.5-2.1L79.8,18.4z M84.4,23.1c0.5,0.3,1,0.6,1.3,1.1
	c1.4,1.8,1.2,4.3-0.5,5.8c-1,0.8-2.3,1.2-3.6,1.2h-4V16.3H81c1.2-0.1,2.4,0.3,3.3,1.1c0.8,0.8,1.2,1.9,1.2,3.1
	C85.5,21.5,85.1,22.4,84.4,23.1L84.4,23.1z M74.4,23.8c0-3-2.5-5.5-5.5-5.4c-3,0-5.5,2.5-5.4,5.5c0,3,2.5,5.5,5.5,5.4
	c1.4,0,2.8-0.6,3.8-1.6C73.9,26.7,74.5,25.3,74.4,23.8z M76.6,23.8c0,2-0.8,4-2.3,5.4c-3,3-7.9,3-10.9,0c-3-2.9-3-7.7-0.1-10.7
	c0,0,0.1-0.1,0.1-0.1c3-3,7.9-3,10.9,0c0,0,0,0,0,0C75.8,19.8,76.6,21.7,76.6,23.8L76.6,23.8z M58.1,29.1h4.1v2.1h-6.2V16.3h2.2
	L58.1,29.1L58.1,29.1z M52.7,25.5h-4.6v-2.1H55v1.2c0,1.9-0.8,3.7-2.2,4.9c-1.3,1.2-3.1,1.9-4.9,1.9c-2,0-4-0.8-5.5-2.2
	c-3-3-3-7.9,0-10.8c1.4-1.4,3.4-2.2,5.4-2.2c1.3,0,2.5,0.4,3.7,1c1.1,0.6,2,1.4,2.7,2.4l0.3,0.4l-1.7,1.4l-0.3-0.5
	c-1-1.6-2.7-2.6-4.6-2.5c-1.5,0-2.9,0.6-3.9,1.7c-2.2,2.1-2.2,5.6,0,7.8c0,0,0,0,0,0c1,1,2.4,1.6,3.8,1.6c1.2,0,2.4-0.4,3.4-1.2
	C52.1,27.5,52.6,26.6,52.7,25.5L52.7,25.5z"/>
<path class="st1" d="M124.7,28.9c0,0.1,0,0.2-0.1,0.3c-1.4,1.5-3.4,2.3-5.4,2.2c-4.2-0.2-7.5-3.7-7.4-7.9c0.1-4,3.4-7.2,7.4-7.4
	c2-0.1,4,0.8,5.4,2.3c0.1,0.1,0.1,0.2,0.1,0.3c0,0.2-0.1,0.4-0.3,0.4c0,0-0.1,0-0.1,0c-0.1,0-0.2,0-0.3-0.1c-1.3-1.2-3.1-1.9-4.9-2
	c-3.8,0-6.9,3.1-6.9,6.9l0,0c0,3.8,3.1,6.9,6.9,6.9c1.8-0.1,3.5-0.8,4.9-2c0.1-0.1,0.2-0.1,0.3-0.1c0.2,0,0.4,0.1,0.4,0.3
	C124.7,28.8,124.7,28.9,124.7,28.9L124.7,28.9z M127.6,31c0,0.2-0.1,0.3-0.3,0.4c0,0-0.1,0-0.1,0c-0.2,0-0.3-0.1-0.4-0.3
	c0,0,0-0.1,0-0.1V16.5c0-0.2,0.1-0.3,0.3-0.4c0,0,0.1,0,0.1,0c0.2,0,0.4,0.1,0.4,0.3c0,0,0,0.1,0,0.1V31L127.6,31z M140.2,16.5
	c0,0.2-0.1,0.4-0.3,0.4c0,0-0.1,0-0.1,0h-4.5V31c0,0.2-0.1,0.3-0.3,0.4c0,0-0.1,0-0.1,0c-0.2,0-0.3-0.1-0.4-0.3c0,0,0-0.1,0-0.1
	V16.9h-4.5c-0.3,0-0.4-0.1-0.4-0.4s0.1-0.4,0.4-0.4h9.7C140,16.1,140.2,16.2,140.2,16.5C140.2,16.4,140.2,16.5,140.2,16.5
	L140.2,16.5z M152.8,16.5c0,0.1,0,0.2-0.1,0.2l-5.6,7.2V31c0,0.2-0.1,0.3-0.3,0.4c0,0-0.1,0-0.1,0c-0.2,0-0.3-0.1-0.4-0.3
	c0,0,0-0.1,0-0.1v-7.1l-5.6-7.2c-0.1-0.1-0.1-0.1-0.1-0.2c0-0.2,0.2-0.4,0.4-0.4c0.1,0,0.2,0.1,0.3,0.2l5.3,6.9l5.3-6.9
	c0.1-0.1,0.2-0.2,0.3-0.2c0.2,0,0.4,0.1,0.4,0.3C152.8,16.4,152.8,16.5,152.8,16.5L152.8,16.5z"/>
<path class="st1" d="M53.4,2.5c0,0.2-0.1,0.4-0.3,0.4c0,0-0.1,0-0.1,0c-0.1,0-0.2,0-0.3-0.1c-1.3-1.2-3.1-1.9-4.9-2
	c-1.8,0-3.6,0.7-4.9,2c-2.7,2.7-2.7,7,0,9.7c0,0,0,0,0,0c2.7,2.6,6.9,2.7,9.6,0.1v-5c0-0.2,0.1-0.3,0.3-0.4c0,0,0.1,0,0.1,0
	c0.3,0,0.4,0.1,0.4,0.4v5.1c0,0.1,0,0.2-0.1,0.3c-0.7,0.7-1.5,1.3-2.5,1.7c-0.9,0.4-1.9,0.6-2.9,0.6c-4.2-0.2-7.5-3.7-7.4-7.9
	c0.1-4,3.4-7.2,7.4-7.4c2-0.1,4,0.8,5.4,2.2C53.3,2.3,53.4,2.4,53.4,2.5L53.4,2.5z"/>
<path class="st1" d="M64.8,14.9c0,0.2-0.1,0.3-0.3,0.4c0,0-0.1,0-0.1,0c-0.1,0-0.2,0-0.3-0.1l-6.4-6.4c-0.1-0.1-0.2-0.2-0.2-0.3
	c0-0.3,0.2-0.4,0.5-0.4h2.3c1,0,1.9-0.4,2.6-1.1c0.7-0.7,1.1-1.6,1.1-2.6c0-2-1.6-3.6-3.7-3.6h-3.7v14.1c0,0.2-0.1,0.3-0.3,0.4
	c0,0-0.1,0-0.1,0c-0.2,0-0.3-0.1-0.4-0.3c0,0,0-0.1,0-0.1V0.3C56,0.1,56.1,0,56.4,0h4c2.4-0.1,4.5,1.8,4.6,4.2s-1.8,4.5-4.2,4.6
	c-0.1,0-0.3,0-0.4,0h-1.5l5.8,5.8C64.7,14.7,64.8,14.8,64.8,14.9L64.8,14.9z"/>
<path class="st1" d="M82,7.7c0,4.2-3.4,7.6-7.7,7.6s-7.6-3.4-7.6-7.7c0-4.2,3.4-7.6,7.7-7.6c2,0,4,0.8,5.4,2.2
	C81.2,3.7,82,5.6,82,7.7z M81.3,7.7c0-1.8-0.7-3.6-2-4.9c-2.7-2.7-7.1-2.7-9.8,0c-2.7,2.7-2.7,7,0,9.7c0,0,0,0,0,0
	c2.7,2.7,7.1,2.7,9.8,0C80.6,11.2,81.3,9.5,81.3,7.7L81.3,7.7z"/>
<path class="st1" d="M94.5,10.1c0,2.9-2.3,5.2-5.2,5.2c-2.9,0-5.2-2.3-5.2-5.2V0.4C84,0.2,84.1,0,84.3,0c0,0,0.1,0,0.1,0
	c0.2,0,0.3,0.1,0.4,0.3c0,0,0,0.1,0,0.1V10c0,2.5,2,4.5,4.5,4.5c2.5,0,4.5-2,4.5-4.5V0.4C93.7,0.2,93.8,0,94,0c0,0,0.1,0,0.1,0
	c0.2,0,0.4,0.1,0.4,0.3c0,0,0,0.1,0,0.1V10.1z"/>
<path class="st1" d="M106.4,4.4c0,2.4-2,4.4-4.4,4.4c0,0,0,0,0,0h-3.3c-0.2,0-0.3-0.1-0.4-0.3c0,0,0-0.1,0-0.1
	c0-0.3,0.1-0.4,0.4-0.4h3.3c1,0,1.9-0.4,2.6-1.1c1.4-1.4,1.4-3.7,0-5.1c0,0,0,0,0,0c-0.7-0.7-1.6-1.1-2.6-1.1h-3.7v14.1
	c0,0.3-0.1,0.4-0.4,0.4c-0.2,0-0.3-0.1-0.4-0.3c0,0,0-0.1,0-0.1V0.4c0-0.2,0.1-0.3,0.3-0.4c0,0,0.1,0,0.1,0h4
	C104.4,0,106.4,1.9,106.4,4.4C106.4,4.4,106.4,4.4,106.4,4.4L106.4,4.4z"/>
<polygon class="st2" points="36.2,0 34.5,0 34.5,31.4 36.2,31.4 36.2,0 "/>
<path class="st3" d="M9,15.9l-0.1-0.4c-0.2-0.8-0.3-1.6-0.3-2.4c0-1,0-1.9,0.2-2.9c0.1-0.4,0-0.3,0.7-0.7c1-0.6,2-1.1,3-1.5
	c0.4-0.2,0.9-0.3,1.3-0.5C13.9,8,14,8.6,14.1,9c0.2,1.1,0.5,2.4,0.8,3.5l0,0c0.3-0.1,0.7-0.2,1-0.3l0.3-0.1c-0.3-1.1-1-3-1.2-3.4
	l-0.5-1.3c1-0.3,2-0.5,3-0.6c0.8-0.1,1.7-0.2,2.5-0.1l0.2,0.2c1,1.2,1.9,2.5,2.5,3.9l1-0.1h0.4c-0.1-0.2-0.2-0.3-0.2-0.5
	c-0.4-0.9-1-1.7-1.6-2.5c-0.2-0.3-0.5-0.5-0.7-0.8c-0.1-0.1-0.2-0.2-0.3-0.3c0.7,0.1,1.4,0.1,2.1,0.3c0.3,0.1,0.7,0.2,1,0.2
	s0.7,0.2,0.9,0.3C24.7,7,24,6.6,23.3,6.3c-0.8-0.3-1.6-0.5-2.4-0.7l-0.7-0.1c-0.2,0-0.2,0-0.3-0.1c-1.1-0.7-2.2-1.3-3.4-1.7
	c0.4,0.3,0.8,0.4,1.2,0.8c0.2,0.1,1,0.7,1.1,0.8l0,0c-0.9,0-1.7,0-2.6,0.1c-0.4,0.1-0.8,0.1-1.1,0.2S14.3,5.9,14,6l-0.5-1.2
	c-0.1-0.1-0.1-0.2-0.2-0.4c0,0.3,0.3,1.5,0.2,1.7c-0.3,0.1-0.8,0.3-1.2,0.4C11.4,7,10.6,7.5,9.7,8L9.2,8.4C9.4,7.6,9.7,6.9,10,6.3
	c0.1-0.2,0.2-0.4,0.3-0.6L10,6.1C9.3,7,8.8,7.9,8.3,9C8,9.7,7.8,10.5,7.6,11.3c-0.3,1.4-0.3,2.8-0.1,4.2c0.1,0.4,0.2,0.8,0.3,1.2
	l0.1,0L8.7,16L9,15.9L9,15.9z"/>
<path class="st3" d="M15.7,15.2c0,0.1,0.1,0.2,0.1,0.3c0.4,1.2,0.8,2.4,1.2,3.6c0.1,0.2,0.2,0.4,0.2,0.6c-0.2,0.1-0.5,0.2-0.7,0.2
	l-0.7,0.2c-1.3,0.4-2.5,1.1-3.6,2c-0.3-0.4-0.6-0.7-0.9-1.1c-0.6-0.8-1.1-1.7-1.5-2.6c-0.1-0.2-0.2-0.5-0.3-0.9l0,0H9.3
	c-0.3,0.1-0.7,0.3-1.1,0.5l0,0l0.1,0.3c0.3,0.8,0.7,1.5,1.1,2.2c0.4,0.5,0.7,1,1.2,1.5l0.8,0.8c0.1,0,0.1,0.1,0.2,0.2l0.5,0.4
	c1,0.8,2,1.4,3.2,1.8c0.5,0.2,1,0.4,1.5,0.5c-0.1-0.1-0.5-0.2-0.6-0.3c-0.8-0.4-1.6-1-2.3-1.6l-0.4-0.3c-0.4-0.3-0.8-0.7-1.1-1.1
	c0.2-0.1,0.3-0.2,0.5-0.3l0.6-0.3c0.8-0.4,1.6-0.7,2.5-1c0.5-0.2,0.9-0.3,1.4-0.4c0.1,0.3,0.3,0.8,0.4,1.1c0.4,1,0.7,1.8,1.1,2.7
	c0.1,0.2,0.2,0.4,0.2,0.5c0-0.4-0.5-2.9-0.5-3.4c-0.1-0.4-0.2-0.8-0.2-1.1c1-0.1,1.4-0.2,2.5-0.2c0.9,0,1.7,0,2.6,0.1
	c-0.2,0.7-0.4,1.4-0.7,2.1c-0.2,0.5-0.4,1-0.7,1.4c-0.1,0.1-0.2,0.3-0.3,0.5c0.5-0.5,1-1.1,1.4-1.8c0.2-0.3,0.4-0.7,0.6-1l0.5-1.1
	l1.2,0.3L25,20.3c-0.1,0-0.5-0.2-0.6-0.2c0.1-0.4,0.3-0.8,0.4-1.2c0.1-0.4,0.2-0.8,0.3-1.3c0.1-0.9,0.2-1.7,0.1-2.6
	c0-0.2,0-0.3,0-0.3l0,0c-0.3,0-0.5-0.1-0.7-0.1h-0.1c-0.2,0-0.4-0.1-0.6-0.1c0.1,0.9,0.2,1.8,0.1,2.8c0,0.7-0.1,1.3-0.2,2
	c0,0.2-0.1,0.4-0.1,0.6c-0.4-0.1-0.8-0.2-1.3-0.3c-0.9-0.1-1.9-0.2-2.8-0.1c-0.4,0-0.9,0.1-1.3,0.1c-0.1-0.6-0.4-1.9-0.6-2.5
	c0-0.2-0.4-1.5-0.6-2.1L16.8,15l-0.1,0.1h-0.2C16.2,15.1,15.9,15.2,15.7,15.2L15.7,15.2z"/>
</svg>
