<svg id="Layer_1" data-name="Layer 1" xmlns="http://www.w3.org/2000/svg" viewBox="0 0 6.54 6.54"><defs><style>.cls-1{fill:#336715;fill-rule:evenodd;}</style></defs><g id="Слой_1"><path class="cls-1" d="M367.49,331.07a3.27,3.27,0,1,1-3.27,3.27A3.26,3.26,0,0,1,367.49,331.07Zm0,.47a2.8,2.8,0,1,1-2.8,2.8A2.8,2.8,0,0,1,367.49,331.54Zm-.8,1.17v1.58h.8a.76.76,0,0,0,.57-.24.73.73,0,0,0,.23-.56.75.75,0,0,0-.23-.56.79.79,0,0,0-.57-.23Zm0,2v1.49a.24.24,0,0,1-.25.25.23.23,0,0,1-.24-.25v-3.77a.23.23,0,0,1,.24-.24h1.05a1.22,1.22,0,0,1,.92.38,1.3,1.3,0,0,1-.92,2.21h0l1.25,1.25a.21.21,0,0,1,.08.17.24.24,0,0,1-.25.25.29.29,0,0,1-.18-.07l-1.65-1.66Z" transform="translate(-364.22 -331.07)"/></g></svg>