<svg id="Layer_1" data-name="Layer 1" xmlns="http://www.w3.org/2000/svg" viewBox="0 0 178.45 178.46"><defs><style>.cls-2{fill-rule:evenodd;fill:#fff}</style></defs><path d="M1338.43 407.2a89.23 89.23 0 11-89.23 89.22 89.2 89.2 0 0189.23-89.22z" transform="translate(-1249.2 -407.2)" fill-rule="evenodd" fill="#999"/><path class="cls-2" d="M1413.36 493.68c0 9.34-.06 12.44-2.36 21.69-.63 2.54-1.39 4.7-2.22 7.07a73.8 73.8 0 01-4.35 9.56l-3.48 5.81c-.32.5-.55.8-.92 1.31-1.29 1.77-2.55 3.68-4 5.29-5.12 5.75-9.37 10-15.91 14.34-1 .64-1.87 1.2-2.84 1.79a75.94 75.94 0 01-9.18 4.75 71.53 71.53 0 01-8.44 3.09c-.67.22-1.17.31-1.88.52-1.24.35-2.49.64-3.74.9a78.67 78.67 0 01-12.34 1.55h-6.7a21.94 21.94 0 01-2.24-.16 73.7 73.7 0 01-25.78-6.7 71.39 71.39 0 01-11.75-6.81 75.59 75.59 0 01-6.42-5.1l-3.69-3.52a60.15 60.15 0 01-4.46-4.84 78.89 78.89 0 01-9.2-14l-2.15-4.7a76.06 76.06 0 01-5.81-24.46v-2.4a23.33 23.33 0 010-4.29v-2.43c.22-7.64 3.11-18.95 6.42-26.06l2.29-4.59c.34-.58.47-1 .82-1.58a76.78 76.78 0 017.57-11 82.26 82.26 0 0110.4-10.35 70.71 70.71 0 016.75-4.94 74.86 74.86 0 0115.54-7.66 60.76 60.76 0 017.12-2.16 68.2 68.2 0 0116.63-2.1 8.59 8.59 0 011.93-.06c1.58.2 3.91-.09 6.73.32a78.85 78.85 0 0111.81 2.11 77.36 77.36 0 0113.55 5 91.73 91.73 0 018.84 5.08 76.13 76.13 0 0112.69 10.69c.84.84 1.42 1.55 2.24 2.41a83.21 83.21 0 017.82 10.73 76 76 0 014.74 9.19c2.22 4.62 4.34 12.82 5.16 18a54.56 54.56 0 01.79 8.67zm-77.85-81.48c12.25 0 16.14.45 27.8 3.65a75.14 75.14 0 017.45 2.69c1.24.51 2.23 1 3.46 1.53a64.57 64.57 0 016.62 3.51c.59.37 1 .59 1.61 1s1 .61 1.59 1a102.63 102.63 0 018.69 6.43c1.8 1.38 4.93 4.5 6.58 6.13l3.63 4.1a83.08 83.08 0 018.38 11.9l1.87 3.29a83 83 0 019.45 36.13v5.84a85 85 0 01-2.51 17.92 82.89 82.89 0 01-8.87 21.55c-.66 1.11-1.23 2.1-2 3.2a85.22 85.22 0 01-12.57 15.27l-6.94 5.94c-1 .75-1.89 1.38-2.88 2.11a85.28 85.28 0 01-16.39 9 86.19 86.19 0 01-28.4 6.23h-7c-3-.12-6-.4-9.09-.83-9.38-1.3-15.17-3.51-23.4-7-1.93-.82-4.8-2.44-6.65-3.49-5.09-2.91-7.36-4.94-11.86-8.41a87.38 87.38 0 01-10.24-10.21c-5.67-7.24-10-13.48-13.44-22.15a78.5 78.5 0 01-3.76-11.37c-2.27-9.2-2.47-14.24-2.47-23.63a69.25 69.25 0 01.83-9.53 83.13 83.13 0 0110.52-30l4-6.16c.68-1 1.49-2 2.21-3s1.52-1.83 2.24-2.74l2.43-2.73a79.75 79.75 0 016.41-6.31l4.23-3.49a86.2 86.2 0 0110.69-7c.69-.34 1.07-.61 1.67-.92 1-.53 2.22-1.19 3.34-1.64 1.29-.54 2.3-1.06 3.58-1.58 8.88-3.52 19.42-6.24 29.18-6.24z" transform="translate(-1249.2 -407.2)"/><path class="cls-2" d="M1299.41 464c0 11.31 4.22 23.55 9.23 33.56.56 1.12 1 2.13 1.62 3.18a17.28 17.28 0 01.84 1.58c.29.54.56 1 .86 1.54 1.94 3.77 7.17 11.81 9.28 14.79 9 12.73 23.55 28.79 40.17 31.5 3.35.54 7.12.73 10.3-.47 1.93-.73 5-2.43 7-3.27 1.38-.55 3.48-1.49 4.33-2.54 2.35-2.87-.5-5.92-2-8.28l-6.56-10.59c-1.6-2.38-6.5-10.73-7.54-11.71-1.73-1.66-4-1.51-6 .21-.47.42-.75.58-1.2 1l-5.86 5c-4.06 2.69-10-5.32-11.93-7.71l-2.83-3.88c-.32-.55-.55-.86-.87-1.36l-10.54-16.63c-2.14-3.23-5.13-9.74-3.86-13.34a4.13 4.13 0 012.11-2.36l8.85-4.72c3.67-2.43.9-6.25-.83-8.88l-3.48-5.62c-.6-1-1.13-1.81-1.74-2.75s-1.1-1.81-1.71-2.76-1.21-1.84-1.8-2.84l-5.25-8.15a4 4 0 00-3-1.5c-2.39 0-4.55 2.49-6.83 4.17-4 3-5.72 4.42-7.85 8.83a25.86 25.86 0 00-1.52 4.15 42.38 42.38 0 00-1.34 9.84z" transform="translate(-1249.2 -407.2)"/></svg>