<svg id="Layer_1" data-name="Layer 1" xmlns="http://www.w3.org/2000/svg" viewBox="0 0 188.06 188.06"><defs><style>.cls-1{fill:#999;}.cls-1,.cls-2{fill-rule:evenodd;}.cls-2{fill:#fff;}</style></defs><path class="cls-1" d="M1138,398.37a94,94,0,1,0,94,94A94,94,0,0,0,1138,398.37Zm86.26,116.11a99.83,99.83,0,0,1-9.4,22.89,21.9,21.9,0,0,0-2,3.27c-4.91,7-7.36,10.22-13.5,15.94l-7.35,6.55c-.82.41-1.64,1.22-2.87,2a86.92,86.92,0,0,1-17.16,9.4,89.27,89.27,0,0,1-30.26,6.54h-7.36a79.8,79.8,0,0,1-9.41-.81c-9.81-1.23-15.93-3.68-24.93-7.36-1.63-.82-4.91-2.46-7-3.68-5.31-2.86-7.77-5.32-12.27-9-2.86-2-9-7.76-11-10.63-5.73-7.76-10.22-14.3-13.9-23.3a57.21,57.21,0,0,1-4.09-11.85c-2.45-9.81-2.45-15.13-2.45-24.94a75.42,75.42,0,0,1,.81-10.22,85.27,85.27,0,0,1,11-31.48l4.09-6.54a23.36,23.36,0,0,1,2.45-3.27c.82-.82,1.64-2,2.46-2.86l2.45-2.87a49.29,49.29,0,0,1,6.54-6.54l4.49-3.68c3.28-2.45,8.18-5.72,11.45-7.77a2.12,2.12,0,0,0,1.64-.81c1.23-.41,2.45-1.23,3.68-1.64a14.4,14.4,0,0,1,3.67-1.63c9.41-3.68,20.45-6.54,30.67-6.54,13.08,0,17.17.4,29.44,3.68,2.45.81,5.31,2,7.77,2.86,1.63.41,2.45,1.22,3.67,1.63a37.7,37.7,0,0,1,7,3.68c.81.41,1.22.82,2,1.23.41.41.81.41,1.63.82,4.91,3.27,4.5,3.67,9,7a34.7,34.7,0,0,1,7,6.54l3.67,4.09a99.61,99.61,0,0,1,9,12.67l2,3.27a113.21,113.21,0,0,1,7.36,19.62,71.79,71.79,0,0,1,2.45,18.81v6.13A74.11,74.11,0,0,1,1224.26,514.48Z" transform="translate(-1043.97 -398.37)"/><path class="cls-2" d="M1224.26,470.73a113.21,113.21,0,0,0-7.36-19.62l-2-3.27a99.61,99.61,0,0,0-9-12.67l-3.67-4.09a34.7,34.7,0,0,0-7-6.54c-4.5-3.28-4.09-3.68-9-7-.82-.41-1.22-.41-1.63-.82-.82-.41-1.23-.82-2-1.23a37.7,37.7,0,0,0-7-3.68c-1.22-.41-2-1.22-3.67-1.63-2.46-.82-5.32-2.05-7.77-2.86-12.27-3.28-16.36-3.68-29.44-3.68-10.22,0-21.26,2.86-30.67,6.54a14.4,14.4,0,0,0-3.67,1.63c-1.23.41-2.45,1.23-3.68,1.64a2.12,2.12,0,0,1-1.64.81c-3.27,2.05-8.17,5.32-11.45,7.77l-4.49,3.68a49.29,49.29,0,0,0-6.54,6.54l-2.45,2.87c-.82.81-1.64,2-2.46,2.86a23.36,23.36,0,0,0-2.45,3.27l-4.09,6.54a85.27,85.27,0,0,0-11,31.48,75.42,75.42,0,0,0-.81,10.22c0,9.81,0,15.13,2.45,24.94a57.21,57.21,0,0,0,4.09,11.85c3.68,9,8.17,15.54,13.9,23.3,2,2.87,8.17,8.59,11,10.63,4.5,3.68,7,6.14,12.27,9,2,1.22,5.32,2.86,7,3.68,9,3.68,15.12,6.13,24.93,7.36a79.8,79.8,0,0,0,9.41.81h7.36a89.27,89.27,0,0,0,30.26-6.54,86.92,86.92,0,0,0,17.16-9.4c1.23-.82,2.05-1.63,2.87-2l7.35-6.55c6.14-5.72,8.59-9,13.5-15.94a21.9,21.9,0,0,1,2-3.27,99.83,99.83,0,0,0,9.4-22.89,74.11,74.11,0,0,0,2.45-18.81v-6.13A71.79,71.79,0,0,0,1224.26,470.73Zm-9.81,41.7a22.19,22.19,0,0,1-2.45,7.36c-1.23,4.09-2.87,6.54-4.5,10.22l-3.68,6.13c-.41.41-.41.82-.81,1.23a69.08,69.08,0,0,1-4.1,5.72c-5.72,6.14-10.22,10.63-17.16,15.13a16.79,16.79,0,0,1-2.87,2c-4.9,2.87-4.9,2.46-9.81,4.91-2.86,1.23-5.72,2-8.58,3.27-.82,0-1.23.41-2,.41a14.5,14.5,0,0,1-4.09.82c-2.86.81-9.4,2-13.08,1.63h-7c-1.23.41-1.63,0-2.45,0a77.44,77.44,0,0,1-27-6.95,78.82,78.82,0,0,1-12.67-7.36,74,74,0,0,1-6.54-5.31l-4.09-3.68a28.32,28.32,0,0,1-4.49-5.31,61.69,61.69,0,0,1-9.82-14.72l-2.45-4.91a91.24,91.24,0,0,1-6.13-25.75c0-.82.41-1.64.41-2.46-.41-3.27-.41-.81-.41-4.49.41-.82,0-1.64,0-2.46.41-8.17,3.68-20,7-27.8l2.45-4.9c.41-.41.41-.82.82-1.64a72.87,72.87,0,0,1,8.18-11.45,70.22,70.22,0,0,1,11-11c2-1.64,4.49-3.68,6.94-5.32a75,75,0,0,1,16.36-7.76,51.27,51.27,0,0,1,7.36-2.46,62.89,62.89,0,0,1,17.57-2c1.23,0,1.23-.41,2.05,0a42.91,42.91,0,0,1,7.36,0c4.09.81,8.17,1.22,12.26,2.45,7,2.05,7.36,2.05,14.31,5.31a42.94,42.94,0,0,1,9.41,5.32,88.47,88.47,0,0,1,13.49,11c.81,1.23,1.22,1.63,2,2.86,2.45,2,7,8.59,8.58,11,2.46,4.9,2.87,5.31,4.91,9.81,2.46,4.91,4.5,13.49,5.31,19.21a56.37,56.37,0,0,1,.82,9C1216.9,499.35,1216.9,502.62,1214.45,512.43Z" transform="translate(-1043.97 -398.37)"/><path class="cls-1" d="M1216.08,480.54c-.81-5.72-2.85-14.3-5.31-19.21-2-4.5-2.45-4.91-4.91-9.81-1.63-2.45-6.13-9-8.58-11-.82-1.23-1.23-1.63-2-2.86a88.47,88.47,0,0,0-13.49-11,42.94,42.94,0,0,0-9.41-5.32C1165.39,418,1165,418,1158,416c-4.09-1.23-8.17-1.64-12.26-2.45a42.91,42.91,0,0,0-7.36,0c-.82-.41-.82,0-2.05,0a62.89,62.89,0,0,0-17.57,2,51.27,51.27,0,0,0-7.36,2.46,75,75,0,0,0-16.36,7.76c-2.45,1.64-4.9,3.68-6.94,5.32a70.22,70.22,0,0,0-11,11,72.87,72.87,0,0,0-8.18,11.45c-.41.82-.41,1.23-.82,1.64l-2.45,4.9c-3.27,7.77-6.54,19.63-7,27.8,0,.82.41,1.64,0,2.46,0,3.68,0,1.22.41,4.49,0,.82-.41,1.64-.41,2.46a91.24,91.24,0,0,0,6.13,25.75l2.45,4.91a61.69,61.69,0,0,0,9.82,14.72,28.32,28.32,0,0,0,4.49,5.31l4.09,3.68a74,74,0,0,0,6.54,5.31,78.82,78.82,0,0,0,12.67,7.36,77.44,77.44,0,0,0,27,6.95c.82,0,1.22.41,2.45,0h7c3.68.41,10.22-.82,13.08-1.63a14.5,14.5,0,0,0,4.09-.82c.82,0,1.23-.41,2-.41,2.86-1.23,5.72-2,8.58-3.27,4.91-2.45,4.91-2,9.81-4.91a16.79,16.79,0,0,0,2.87-2c6.94-4.5,11.44-9,17.16-15.13a69.08,69.08,0,0,0,4.1-5.72c.4-.41.4-.82.81-1.23l3.68-6.13c1.63-3.68,3.27-6.13,4.5-10.22a22.19,22.19,0,0,0,2.45-7.36c2.45-9.81,2.45-13.08,2.45-22.89A56.37,56.37,0,0,0,1216.08,480.54Zm-27.39-26.16c0,.41,0,0-.41.41s-.41.41-.81.41c-1.23,1.22-7.36,6.13-7.77,6.13a1.43,1.43,0,0,1-.82.41l-9.4,7.77c-5.31,3.68-11,8.17-15.94,11.85l-4.91,4.09a60,60,0,0,0-5.32,4.09c-.81.41-1.63,1.22-2.85,2l-2.46,1.64a12.21,12.21,0,0,1-2.86-2.05c-.82-.41-1.64-1.22-2.45-1.63l-20.86-16a42.18,42.18,0,0,0-4.9-4.08c-2.46-2.05-5.32-4.09-7.77-6.14a12.36,12.36,0,0,1-2.86-2c-.41,0-9-6.95-9-6.95Zm-102.2,11c.41,0,3.27,2.45,3.68,2.86a22.34,22.34,0,0,1,3.67,2.86c2.87,2.05,5.32,3.68,7.77,5.73l14.72,11.44c-.41.41-3.27,2.86-3.68,3.68l-3.67,3.68-22.49,22.49Zm.41,65c0-.41,4.08-3.68,4.49-4.5l27.81-27.39a48.72,48.72,0,0,1,4.49-4.9c.41.41,9.81,7.76,10.63,8.17.82.82,3.27,2.87,3.68,2.87s13.09-10.23,14.31-10.63c.41,0,.82.81,1.23.81l3.26,3.68c2.87,2.45,31.89,31.48,32.3,31.89Zm102.61-12.26-2-2c-.82-.41-1.23-1.22-1.64-1.63l-7.77-7.77-1.63-1.64L1161.31,490l-1.64-1.64,11-8.58c1.63-1.23,18.39-14.31,18.8-14.31Z" transform="translate(-1043.97 -398.37)"/><path class="cls-2" d="M1189.1,530.42H1086.9c0-.41,4.08-3.68,4.49-4.5l27.81-27.39a48.72,48.72,0,0,1,4.49-4.9c.41.41,9.81,7.76,10.63,8.17.82.82,3.27,2.87,3.68,2.87s13.09-10.23,14.31-10.63c.41,0,.82.81,1.23.81l3.26,3.68C1159.67,501,1188.69,530,1189.1,530.42Z" transform="translate(-1043.97 -398.37)"/><path class="cls-2" d="M1116.33,488.31c-.41.41-3.27,2.86-3.68,3.68l-3.67,3.68-22.49,22.49V465.42c.41,0,3.27,2.45,3.68,2.86a22.34,22.34,0,0,1,3.67,2.86c2.87,2.05,5.32,3.68,7.77,5.73Z" transform="translate(-1043.97 -398.37)"/><path class="cls-2" d="M1189.51,465.42v52.74l-2-2c-.82-.41-1.23-1.22-1.64-1.63l-7.77-7.77-1.63-1.64L1161.31,490l-1.64-1.64,11-8.58C1172.34,478.5,1189.1,465.42,1189.51,465.42Z" transform="translate(-1043.97 -398.37)"/><path class="cls-2" d="M1188.69,454.38c0,.41,0,0-.41.41s-.41.41-.81.41c-1.23,1.22-7.36,6.13-7.77,6.13a1.43,1.43,0,0,1-.82.41l-9.4,7.77c-5.31,3.68-11,8.17-15.94,11.85l-4.91,4.09a60,60,0,0,0-5.32,4.09c-.81.41-1.63,1.22-2.85,2l-2.46,1.64a12.21,12.21,0,0,1-2.86-2.05c-.82-.41-1.64-1.22-2.45-1.63l-20.86-16a42.18,42.18,0,0,0-4.9-4.08c-2.46-2.05-5.32-4.09-7.77-6.14a12.36,12.36,0,0,1-2.86-2c-.41,0-9-6.95-9-6.95Z" transform="translate(-1043.97 -398.37)"/></svg>