<svg version="1.1" id="Layer_1" xmlns="http://www.w3.org/2000/svg" x="0" y="0" viewBox="0 0 152.8 31.4" xml:space="preserve"><style>.st1{fill-rule:evenodd;clip-rule:evenodd;fill:#010066}</style><ellipse cx="15.5" cy="15.7" rx="15.5" ry="15.7" fill-rule="evenodd" clip-rule="evenodd" fill="#fff"/><path class="st1" d="M12.9 26.8c-.8-.3-1.7-.7-2.4-1.2s-1.4-1-2.1-1.6c-.6-.6-1.2-1.2-1.7-1.9s-1-1.5-1.3-2.3C3.7 16 3.9 11.7 6 8.1c.3-.6.6-1.1 1-1.6l.2-.3.3-.2c.2-.2.3-.3.4-.5 3.3-3.4 8.2-4.8 12.8-3.6 1.8.5 3.4 1.3 4.8 2.4-.5-.5-1-1-1.6-1.5-3.8-3-9-3.7-13.5-1.9-1.1.6-2.2 1.2-3.2 2-.5.4-.9.8-1.4 1.2 0 .1-.1.2-.2.3-.2.1-.3.3-.5.5-.5.6-.9 1.2-1.2 1.8-3.7 6.5-1.5 14.8 5 18.5.8.5 1.6.8 2.5 1.1.4.2 1 .4 1.5.5z"/><path class="st1" d="M23.9 11.3c-.6 0-1.2.1-1.7.1-1.3.1-2.7.4-4 .7-.2.1-.5.1-.7.2h-.1l-1.4.4c-.5.2-1.1.4-1.6.6-1 .4-2 .9-2.9 1.5l-1.3.9-1.2.9-.8.7c-.1.1-.2.1-.2.2.3-.1 1-.5 1.1-.5l.6-.3c.2-.1.4-.2.7-.3.2-.2 2.5-1 2.9-1.1 1-.3 2.1-.6 3.2-.8h.2l1.3-.2c1.1-.2 2.2-.3 3.3-.3 1.1 0 2.2 0 3.3.2.4 0 .9.1 1.3.2l.8.2.7.2c.1.5.2 1.1.2 1.6 0 .6 0 1.2-.1 1.8-.2 2.4-1.1 4.6-2.7 6.4l-.1.1-1 1c-1.3 1.1-2.7 2-4.3 2.5-4.8 1.7-10.1.7-13.9-2.6-1-.8-1.8-1.8-2.6-2.9l-.3-.7C1.2 19.7.4 17 .3 14.3V12.6s-.2.8-.2.9c-.1 1-.1 2.1-.1 3.1.1 3.2 1.3 6.3 3.3 8.8l.5.6c0 .1.1.1.1.2l.4.4.3.3c.4.4.5.4.8.8l.3.3c2.9 2.4 6.6 3.6 10.3 3.4 3.5-.1 6.9-1.4 9.5-3.7l1.1-1.1.3-.3.3-.3.3-.3c.4-.5.8-1 1.2-1.6 2-3.2 2.8-7 2.2-10.7-.1-.6-.2-1.2-.4-1.8-.1-.1-2.4-.3-2.5-.3-.9-.1-1.8-.1-2.7-.1l-1.4.1zm80.3 5h2.2v12.8h4.1v2.1h-6.3V16.3zm-3.4 7.1c-.2-2.9-2.6-5.2-5.5-5.2-3.1 0-5.5 2.5-5.5 5.5s2.5 5.5 5.5 5.5c2.9 0 5.3-2.3 5.5-5.2v-.6zm0-7.1h2.2v14.8h-2.2V29l-.1.1c-3 3-7.9 3-10.9 0-3-2.9-3-7.7-.1-10.7l.1-.1c3-3 7.9-3 10.9 0l.1.1v-2.1zm-21 8.3v4.5h1.9c.8 0 1.5-.2 2.1-.6.5-.4.8-1 .7-1.6 0-1.9-1.6-2.3-3.2-2.3h-1.5zm0-6.2v4.1h1.3c.6 0 1.2-.2 1.6-.5.4-.4.6-.9.6-1.4 0-1.6-1-2.1-2.5-2.1l-1-.1zm4.6 4.7c.5.3 1 .6 1.3 1.1 1.4 1.8 1.2 4.3-.5 5.8-1 .8-2.3 1.2-3.6 1.2h-4V16.3H81c1.2-.1 2.4.3 3.3 1.1.8.8 1.2 1.9 1.2 3.1 0 1-.4 1.9-1.1 2.6zm-10 .7c0-3-2.5-5.5-5.5-5.4-3 0-5.5 2.5-5.4 5.5 0 3 2.5 5.5 5.5 5.4 1.4 0 2.8-.6 3.8-1.6 1.1-1 1.7-2.4 1.6-3.9zm2.2 0c0 2-.8 4-2.3 5.4-3 3-7.9 3-10.9 0-3-2.9-3-7.7-.1-10.7l.1-.1c3-3 7.9-3 10.9 0 1.5 1.4 2.3 3.3 2.3 5.4zm-18.5 5.3h4.1v2.1H56V16.3h2.2l-.1 12.8zm-5.4-3.6h-4.6v-2.1H55v1.2c0 1.9-.8 3.7-2.2 4.9-1.3 1.2-3.1 1.9-4.9 1.9-2 0-4-.8-5.5-2.2-3-3-3-7.9 0-10.8 1.4-1.4 3.4-2.2 5.4-2.2 1.3 0 2.5.4 3.7 1 1.1.6 2 1.4 2.7 2.4l.3.4-1.7 1.4-.3-.5c-1-1.6-2.7-2.6-4.6-2.5-1.5 0-2.9.6-3.9 1.7-2.2 2.1-2.2 5.6 0 7.8 1 1 2.4 1.6 3.8 1.6 1.2 0 2.4-.4 3.4-1.2.9-.8 1.4-1.7 1.5-2.8zm72 3.4c0 .1 0 .2-.1.3-1.4 1.5-3.4 2.3-5.4 2.2-4.2-.2-7.5-3.7-7.4-7.9.1-4 3.4-7.2 7.4-7.4 2-.1 4 .8 5.4 2.3.1.1.1.2.1.3 0 .2-.1.4-.3.4h-.1c-.1 0-.2 0-.3-.1-1.3-1.2-3.1-1.9-4.9-2-3.8 0-6.9 3.1-6.9 6.9 0 3.8 3.1 6.9 6.9 6.9 1.8-.1 3.5-.8 4.9-2 .1-.1.2-.1.3-.1.2 0 .4.1.4.3v-.1zm2.9 2.1c0 .2-.1.3-.3.4h-.1c-.2 0-.3-.1-.4-.3V16.5c0-.2.1-.3.3-.4h.1c.2 0 .4.1.4.3V31zm12.6-14.5c0 .2-.1.4-.3.4h-4.6V31c0 .2-.1.3-.3.4h-.1c-.2 0-.3-.1-.4-.3V16.9H130c-.3 0-.4-.1-.4-.4s.1-.4.4-.4h9.7c.3 0 .5.1.5.4 0-.1 0 0 0 0zm12.6 0c0 .1 0 .2-.1.2l-5.6 7.2V31c0 .2-.1.3-.3.4h-.1c-.2 0-.3-.1-.4-.3v-7.2l-5.6-7.2c-.1-.1-.1-.1-.1-.2 0-.2.2-.4.4-.4.1 0 .2.1.3.2l5.3 6.9 5.3-6.9c.1-.1.2-.2.3-.2.2 0 .4.1.4.3.2 0 .2.1.2.1zm-99.4-14c0 .2-.1.4-.3.4H53c-.1 0-.2 0-.3-.1-1.3-1.2-3.1-1.9-4.9-2-1.8 0-3.6.7-4.9 2-2.7 2.7-2.7 7 0 9.7 2.7 2.6 6.9 2.7 9.6.1v-5c0-.2.1-.3.3-.4h.1c.3 0 .4.1.4.4v5.1c0 .1 0 .2-.1.3-.7.7-1.5 1.3-2.5 1.7-.9.4-1.9.6-2.9.6-4.2-.2-7.5-3.7-7.4-7.9.1-4 3.4-7.2 7.4-7.4 2-.1 4 .8 5.4 2.2.1.1.2.2.2.3zm11.4 12.4c0 .2-.1.3-.3.4h-.1c-.1 0-.2 0-.3-.1l-6.4-6.4c-.1-.1-.2-.2-.2-.3 0-.3.2-.4.5-.4h2.3c1 0 1.9-.4 2.6-1.1.7-.7 1.1-1.6 1.1-2.6 0-2-1.6-3.6-3.7-3.6h-3.7v14.1c0 .2-.1.3-.3.4h-.1c-.2 0-.3-.1-.4-.3V.3c.2-.2.3-.3.6-.3h4c2.4-.1 4.5 1.8 4.6 4.2s-1.8 4.5-4.2 4.6h-1.9l5.8 5.8c0 .1.1.2.1.3zM82 7.7c0 4.2-3.4 7.6-7.7 7.6s-7.6-3.4-7.6-7.7c0-4.2 3.4-7.6 7.7-7.6 2 0 4 .8 5.4 2.2C81.2 3.7 82 5.6 82 7.7zm-.7 0c0-1.8-.7-3.6-2-4.9-2.7-2.7-7.1-2.7-9.8 0-2.7 2.7-2.7 7 0 9.7 2.7 2.7 7.1 2.7 9.8 0 1.3-1.3 2-3 2-4.8zm13.2 2.4c0 2.9-2.3 5.2-5.2 5.2-2.9 0-5.2-2.3-5.2-5.2V.4c-.1-.2 0-.4.2-.4h.1c.2 0 .3.1.4.3V10c0 2.5 2 4.5 4.5 4.5s4.5-2 4.5-4.5V.4c-.1-.2 0-.4.2-.4h.1c.2 0 .4.1.4.3v9.8zm11.9-5.7c0 2.4-2 4.4-4.4 4.4h-3.3c-.2 0-.3-.1-.4-.3v-.1c0-.3.1-.4.4-.4h3.3c1 0 1.9-.4 2.6-1.1 1.4-1.4 1.4-3.7 0-5.1-.7-.7-1.6-1.1-2.6-1.1h-3.7v14.1c0 .3-.1.4-.4.4-.2 0-.3-.1-.4-.3V.4c0-.2.1-.3.3-.4h4.1c2.5 0 4.5 1.9 4.5 4.4z"/><path fill-rule="evenodd" clip-rule="evenodd" fill="#fe0000" d="M36.2 0h-1.7v31.4h1.7V0z"/><path d="M9 15.9l-.1-.4c-.2-.8-.3-1.6-.3-2.4 0-1 0-1.9.2-2.9.1-.4 0-.3.7-.7 1-.6 2-1.1 3-1.5.4-.2.9-.3 1.3-.5.1.5.2 1.1.3 1.5.2 1.1.5 2.4.8 3.5.3-.1.7-.2 1-.3l.3-.1c-.3-1.1-1-3-1.2-3.4l-.5-1.3c1-.3 2-.5 3-.6.8-.1 1.7-.2 2.5-.1l.2.2c1 1.2 1.9 2.5 2.5 3.9l1-.1h.4c-.1-.2-.2-.3-.2-.5-.4-.9-1-1.7-1.6-2.5-.2-.3-.5-.5-.7-.8l-.3-.3c.7.1 1.4.1 2.1.3.3.1.7.2 1 .2s.7.2.9.3c-.6-.4-1.3-.8-2-1.1-.8-.3-1.6-.5-2.4-.7l-.7-.1c-.2 0-.2 0-.3-.1-1.1-.7-2.2-1.3-3.4-1.7.4.3.8.4 1.2.8.2.1 1 .7 1.1.8-.9 0-1.7 0-2.6.1-.4.1-.8.1-1.1.2s-.8.3-1.1.4l-.5-1.2c-.1-.1-.1-.2-.2-.4 0 .3.3 1.5.2 1.7-.3.1-.8.3-1.2.4-.9.5-1.7 1-2.6 1.5l-.5.4c.2-.8.5-1.5.8-2.1l.3-.6-.3.4C9.3 7 8.8 7.9 8.3 9c-.3.7-.5 1.5-.7 2.3-.3 1.4-.3 2.8-.1 4.2l.3 1.2h.1l.8-.7.3-.1zm6.7-.7c0 .1.1.2.1.3l1.2 3.6c.1.2.2.4.2.6-.2.1-.5.2-.7.2l-.7.2c-1.3.4-2.5 1.1-3.6 2-.3-.4-.6-.7-.9-1.1-.6-.8-1.1-1.7-1.5-2.6-.1-.2-.2-.5-.3-.9h-.2c-.3.1-.7.3-1.1.5l.1.3c.3.8.7 1.5 1.1 2.2.4.5.7 1 1.2 1.5l.8.8c.1 0 .1.1.2.2l.5.4c1 .8 2 1.4 3.2 1.8.5.2 1 .4 1.5.5-.1-.1-.5-.2-.6-.3-.8-.4-1.6-1-2.3-1.6l-.4-.3c-.4-.3-.8-.7-1.1-1.1.2-.1.3-.2.5-.3l.6-.3c.8-.4 1.6-.7 2.5-1 .5-.2.9-.3 1.4-.4.1.3.3.8.4 1.1.4 1 .7 1.8 1.1 2.7.1.2.2.4.2.5 0-.4-.5-2.9-.5-3.4-.1-.4-.2-.8-.2-1.1 1-.1 1.4-.2 2.5-.2.9 0 1.7 0 2.6.1-.2.7-.4 1.4-.7 2.1-.2.5-.4 1-.7 1.4-.1.1-.2.3-.3.5.5-.5 1-1.1 1.4-1.8.2-.3.4-.7.6-1l.5-1.1 1.2.3-.5-.2c-.1 0-.5-.2-.6-.2.1-.4.3-.8.4-1.2.1-.4.2-.8.3-1.3.1-.9.2-1.7.1-2.6v-.3c-.3 0-.5-.1-.7-.1h-.1c-.2 0-.4-.1-.6-.1.1.9.2 1.8.1 2.8 0 .7-.1 1.3-.2 2 0 .2-.1.4-.1.6-.4-.1-.8-.2-1.3-.3-.9-.1-1.9-.2-2.8-.1-.4 0-.9.1-1.3.1-.1-.6-.4-1.9-.6-2.5 0-.2-.4-1.5-.6-2.1h-.2l-.1.1h-.2c-.3 0-.6.1-.8.1z" fill="#d1d2d4" fill-rule="evenodd" clip-rule="evenodd"/></svg>