<svg id="Layer_1" data-name="Layer 1" xmlns="http://www.w3.org/2000/svg" viewBox="0 0 265.29 49.1"><defs><style>.cls-1{fill:#336715}.cls-1,.cls-2,.cls-3,.cls-4,.cls-5{fill-rule:evenodd}.cls-2{fill:#bddf40}.cls-3{fill:#bade41}.cls-4{fill:#fff}.cls-5{fill:#bae042}</style></defs><path class="cls-1" d="M1088.81 548.15c.28-.38.55-.76.83-1.16a1.49 1.49 0 011.19-.62 1.36 1.36 0 011.46 1.42 1.77 1.77 0 01-.15.68 9.1 9.1 0 01-14.3 1.87 9.09 9.09 0 016.43-15.51 9 9 0 013 .55 11.14 11.14 0 013 1.66c.94.72 2.06 1.79 2.06 3.07a1.37 1.37 0 01-.71 1.23l-11.85 6.84a6.27 6.27 0 009.1-.11zm-.09-8.43a5.81 5.81 0 00-4.5-1.88A6.16 6.16 0 001078 544a6.09 6.09 0 00.25 1.76l10.45-6z" transform="translate(-827 -516)"/><path class="cls-1" d="M1072.21 546.42a7.8 7.8 0 012.18 2.18 7.63 7.63 0 011.33 4.33 7.82 7.82 0 01-15.64 0 1.45 1.45 0 012.89 0 4.67 4.67 0 001.45 3.46 4.91 4.91 0 103.5-8.39 6.54 6.54 0 110-13.07 6.54 6.54 0 016.52 6.57 6.1 6.1 0 01-2.21 4.94zm-.68-4.95a3.44 3.44 0 00-1.07-2.56 3.63 3.63 0 10-5.16 5.12 3.67 3.67 0 005.16 0 3.45 3.45 0 001.07-2.56zM1056.27 552a6.54 6.54 0 11-3.68-12 6.38 6.38 0 013.63 1.06 3.41 3.41 0 00-1-2.16 3.48 3.48 0 00-2.58-1.07 3.84 3.84 0 00-2 .61l-.78.46-.85.4a1.38 1.38 0 01-1.46-1.47 1.45 1.45 0 01.41-1 6 6 0 014.65-1.94 6.56 6.56 0 016.54 6.54v10.19a1.45 1.45 0 01-2.86.34zm0-5.44a3.41 3.41 0 00-1.07-2.54 3.65 3.65 0 00-5.16 0 3.56 3.56 0 000 5.09 3.65 3.65 0 005.16 0 3.41 3.41 0 001.07-2.55z" transform="translate(-827 -516)"/><path class="cls-1" d="M1046.75 551.62a1.36 1.36 0 01-1.44 1.46 5.27 5.27 0 01-5.27-5.27V528.7a1.45 1.45 0 112.89 0v19.08a2.39 2.39 0 002.38 2.38 1.36 1.36 0 011.44 1.46zm-7.44 0a1.37 1.37 0 01-1.45 1.46 5.26 5.26 0 01-5.26-5.27V528.7a1.44 1.44 0 112.88 0v19.08a2.41 2.41 0 002.38 2.38 1.37 1.37 0 011.45 1.46zm-10.43-22.27a2.12 2.12 0 01-4.23 0 2.07 2.07 0 01.63-1.48 2.1 2.1 0 011.49-.62 2.06 2.06 0 011.48.62 2 2 0 01.63 1.48zm-.67 7.01v15.28a1.44 1.44 0 01-2.88 0v-15.28a1.44 1.44 0 112.88 0zm-17.69 12.06l10.17-20.42a1.46 1.46 0 012.75.65c0 .65-5 10.37-5.39 11.25q-2.09 4.18-4.19 8.37c-.65 1.29-1.3 2.63-2 3.9a1.5 1.5 0 01-1.32.87 1.55 1.55 0 01-1.34-.86c-.7-1.28-1.36-2.62-2-3.91q-2.11-4.18-4.19-8.37c-.44-.88-5.39-10.6-5.39-11.25a1.43 1.43 0 012.72-.63l10.2 20.36z" transform="translate(-827 -516)"/><path class="cls-2" d="M1022.59 528.69q0 .21-5.3 10.87t-6.18 12.24a.69.69 0 01-.58.43.68.68 0 01-.59-.43q-.91-1.63-6.19-12.24t-5.3-10.87a.53.53 0 01.61-.59.52.52 0 01.5.35l11 21.87 10.92-21.89a.54.54 0 01.52-.33c.42 0 .63.2.63.59zm5.41.66q0 1.2-1.26 1.2c-.84 0-1.27-.4-1.27-1.2a1.22 1.22 0 01.38-.88 1.26 1.26 0 011.78 0 1.21 1.21 0 01.37.88zm-.67 7v15.28a.59.59 0 11-1.18 0v-15.27a.59.59 0 111.18 0zm11.13 15.27a.53.53 0 01-.6.61 4.42 4.42 0 01-4.41-4.42V528.7a.59.59 0 111.18 0v19.08a3.26 3.26 0 003.23 3.23.53.53 0 01.6.61zm7.44 0a.53.53 0 01-.59.61 4.44 4.44 0 01-4.42-4.42V528.7a.6.6 0 111.19 0v19.08a3.24 3.24 0 003.23 3.23.53.53 0 01.59.61zm11.19-5.08a4.26 4.26 0 00-1.32-3.14 4.49 4.49 0 00-6.36 0 4.41 4.41 0 000 6.29 4.49 4.49 0 006.36 0 4.28 4.28 0 001.32-3.15zm1.19 5.1a.6.6 0 01-1.19 0V550a5.69 5.69 0 110-7v-1.6a4.31 4.31 0 00-1.32-3.16 4.36 4.36 0 00-3.18-1.31 4.51 4.51 0 00-2.41.74c-.81.48-1.21.73-1.19.73a.54.54 0 01-.6-.62.6.6 0 01.18-.42 5.23 5.23 0 014-1.66 5.72 5.72 0 015.69 5.69v10.19zm14.11-10.17a4.51 4.51 0 10-7.69 3.16 4.49 4.49 0 006.36 0 4.33 4.33 0 001.33-3.16zm1.18 0a5.31 5.31 0 01-3 5 7 7 0 013.13 2.58 7 7 0 11-12.76 3.84.53.53 0 01.6-.6.52.52 0 01.59.59 5.54 5.54 0 001.7 4.07 5.76 5.76 0 008.16 0 5.77 5.77 0 00-4.06-9.84 5.69 5.69 0 010-11.37 5.68 5.68 0 015.67 5.72zM1090 540a7.07 7.07 0 00-12.84 4 7 7 0 00.66 3l12.18-7zm1.43 7.83a.8.8 0 01-.08.33 8.31 8.31 0 01-7.14 4.11 8.24 8.24 0 110-16.47 8.26 8.26 0 012.75.5 10.4 10.4 0 012.72 1.54c1.15.89 1.73 1.68 1.73 2.39a.52.52 0 01-.29.5l-12.7 7.33a7.09 7.09 0 0011 .66c.19-.25.47-.65.85-1.18a.61.61 0 01.51-.28c.4 0 .61.19.61.57z" transform="translate(-827 -516)"/><path class="cls-1" d="M904.69 547.64v-7.47a1.45 1.45 0 112.89 0v8.12a1.47 1.47 0 01-.39 1 10.93 10.93 0 01-4.23 2.85 13.46 13.46 0 01-4.94 1 12.92 12.92 0 010-25.83 12.16 12.16 0 019.13 3.79 1.42 1.42 0 01.44 1 1.38 1.38 0 01-1.47 1.46 1.51 1.51 0 01-1-.38 11 11 0 00-7.13-3 9.66 9.66 0 00-7.09 2.93 10 10 0 0013.77 14.53zm6.8-12a5.13 5.13 0 012.67-.71 4.87 4.87 0 014.56 2.64 1.51 1.51 0 01.21.74 1.37 1.37 0 01-1.48 1.42c-.57 0-1.28-.81-1.66-1.18a2.21 2.21 0 00-1.63-.69 2.39 2.39 0 00-2.38 2.37v11.43a1.44 1.44 0 11-2.88 0v-15.3a1.36 1.36 0 011.44-1.45 1.22 1.22 0 011.15.71zm22.06 8.36a6.18 6.18 0 00-6.2-6.16 6.16 6.16 0 104.38 10.51 5.87 5.87 0 001.82-4.35zm2.89 0a9.08 9.08 0 11-2.66-6.43 8.79 8.79 0 012.66 6.43zm14.41-4.4c-.4-.28-.9-.56-1.27-.79a6.19 6.19 0 00-3.28-1 6.18 6.18 0 00-6.2 6.16 5.87 5.87 0 001.82 4.35 6 6 0 004.38 1.81 6.17 6.17 0 003.28-1c.36-.23.86-.51 1.26-.78l.85-.45a1.38 1.38 0 011.46 1.46 1.44 1.44 0 01-.42 1 8.39 8.39 0 01-6.42 2.67 9.09 9.09 0 110-18.17 8.44 8.44 0 016.44 2.68 1.45 1.45 0 01.41 1 1.38 1.38 0 01-1.46 1.46l-.85-.44zm15.33.12a5.83 5.83 0 00-4.51-1.88 6.18 6.18 0 00-6.2 6.16 6.1 6.1 0 00.26 1.76l10.45-6zm.08 8.43l.84-1.16a1.48 1.48 0 011.19-.62 1.36 1.36 0 011.45 1.42 1.6 1.6 0 01-.15.68v.08a8.94 8.94 0 01-3.33 3.3 9.06 9.06 0 01-11-1.43 9.09 9.09 0 016.43-15.51 9 9 0 013 .55 11.3 11.3 0 012.95 1.66c.94.72 2.06 1.79 2.06 3.07a1.37 1.37 0 01-.71 1.23l-11.85 6.84a6.26 6.26 0 009.09-.11zm6.94-12.53a5.09 5.09 0 012.66-.71 4.87 4.87 0 014.57 2.64 1.49 1.49 0 01.2.74 1.36 1.36 0 01-1.47 1.42c-.58 0-1.29-.81-1.67-1.18a2.19 2.19 0 00-1.63-.69 2.26 2.26 0 00-1.68.7 2.23 2.23 0 00-.69 1.67v11.43a1.45 1.45 0 01-2.89 0v-15.28a1.37 1.37 0 011.44-1.45 1.25 1.25 0 011.16.71zM991.84 552a6.57 6.57 0 01-10.19-5.46v-10.18a1.44 1.44 0 112.88 0v10.16a3.45 3.45 0 001.08 2.56 3.61 3.61 0 005.15 0 3.45 3.45 0 001.08-2.56v-10.16a1.44 1.44 0 112.88 0v17.84a6.56 6.56 0 01-6.54 6.54 6.14 6.14 0 01-5.67-3.26 1.64 1.64 0 01-.19-.75 1.38 1.38 0 011.48-1.43c.59 0 1.06.53 1.41.94a6.18 6.18 0 001.11 1.06 3.33 3.33 0 001.87.52 3.48 3.48 0 002.57-1.08 3.45 3.45 0 001.08-2.56V552z" transform="translate(-827 -516)"/><path class="cls-2" d="M993.87 554.2a5.7 5.7 0 01-5.69 5.69 5.26 5.26 0 01-4.92-2.83.71.71 0 01-.09-.33c0-.38.21-.58.63-.58.15 0 .4.22.77.65a6.93 6.93 0 001.29 1.21 4.13 4.13 0 002.33.66 4.54 4.54 0 004.5-4.49V550a5.7 5.7 0 01-10.19-3.49v-10.15a.59.59 0 111.18 0v10.16a4.51 4.51 0 009 0v-10.16a.59.59 0 111.18 0v17.84zm-14.09-15.91c0 .38-.21.57-.62.57a5 5 0 01-1.07-.94 3.05 3.05 0 00-2.23-.93 3.23 3.23 0 00-3.22 3.22v11.43a.6.6 0 01-1.19 0v-15.28a.53.53 0 01.59-.6q.62 0 .6 1.41a4.21 4.21 0 013.22-1.41 4 4 0 013.82 2.21.6.6 0 01.1.32zm-10.89 9.5a.67.67 0 01-.08.33 8.2 8.2 0 01-3 3 8.08 8.08 0 01-4.11 1.11 8.24 8.24 0 110-16.47 8.3 8.3 0 012.75.5 10.4 10.4 0 012.72 1.54c1.15.89 1.73 1.68 1.73 2.39a.54.54 0 01-.29.5L955.89 548a7.08 7.08 0 0011 .66c.2-.25.48-.65.85-1.18a.64.64 0 01.52-.28q.6 0 .6.57zm-1.43-7.79a6.71 6.71 0 00-5.79-3 7 7 0 00-7 7 7 7 0 00.67 3l12.17-7zm-15.15-1.39a.54.54 0 01-.61.62 12 12 0 00-1.68-1.1 7 7 0 00-3.72-1.1 7 7 0 100 14 6.92 6.92 0 003.7-1.13 10.51 10.51 0 001.67-1.1.54.54 0 01.61.61.62.62 0 01-.19.43 7.57 7.57 0 01-5.8 2.39 8.24 8.24 0 110-16.47 7.61 7.61 0 015.82 2.41.6.6 0 01.18.4zM935.59 544a8.23 8.23 0 11-2.41-5.83 8 8 0 012.41 5.83zm-1.19 0a7.05 7.05 0 10-12 5 7 7 0 0010 0 6.72 6.72 0 002.07-5zm-16.32-5.71q0 .57-.63.57a5.1 5.1 0 01-1.06-.94 3.22 3.22 0 00-5.46 2.29v11.43a.59.59 0 11-1.18 0v-15.28a.52.52 0 01.59-.6c.41 0 .6.47.59 1.41a4.24 4.24 0 013.23-1.41A4 4 0 01918 538a.6.6 0 01.1.32zm-11.35-6.24a.54.54 0 01-.62.61.67.67 0 01-.42-.18 11.76 11.76 0 00-7.68-3.15 10.84 10.84 0 107.53 18.67v-7.84a.6.6 0 111.19 0v8.12a.59.59 0 01-.18.41 10 10 0 01-3.91 2.62 12.53 12.53 0 01-4.62.91 12.07 12.07 0 010-24.13 11.31 11.31 0 018.53 3.54.58.58 0 01.19.41z" transform="translate(-827 -516)"/><path class="cls-1" d="M837.27 554.93l5.45-1.64a14.36 14.36 0 01-.74 2.09c-.41 1.17-.2 1.3-1.35 1.68s-2.29-.84-2.94-1.54c-.49-.53-.18-.14-.42-.59zm-3.2-4a41.79 41.79 0 014.88-1.21c.6 0 3.5 1.72 4 2.07L836.3 554a10.66 10.66 0 01-2.23-3zm1.46-1.66a22 22 0 01-2.26.49c-.4-1.46-1.2-2.54-1.46-4.34a16.83 16.83 0 012.92 1.61c1 .59 1.8 1 2.75 1.58a5.11 5.11 0 01-2 .66zm-3-5a12.55 12.55 0 014.71-.71l1.16 4.17c-.64-.27-5.47-3.07-5.87-3.46zm10.73-.08a10.71 10.71 0 012.28.69c1 .38 1.18.49 1.31 1.7s-.42 1.25-1 2a12.46 12.46 0 01-1.35 1.64l-1.24-6zm-1.46-.33c.52.91 1.31 5.3 1.46 6.65a21.91 21.91 0 01-2-1.12c-.75-.43-1.12-.44-1.41-1.4-.41-1.42-.95-3-1.26-4.5a9.23 9.23 0 013.26.37zm.05 17.81A23.31 23.31 0 01845.5 551c5.59-9.11 18.32-13.42 29.29-8.39a22.25 22.25 0 01-3.64 10.66 23 23 0 01-17.63 10.51c-3.1.27-8.38-.33-11.1-1.75l-.59-.38zm-13.44-19c2.14-1.68 8.39-2.46 11.7-2.16a24 24 0 015.73 1.23c.81.28 4 1.52 4.53 2.34l-1.23 1c-1.68-.35-3.33-2.1-8.79-2.75-2.76-.33-8.09.13-10 1.35-.49 4.57 5.71 13.79 10.55 15.47l-.18 2a18.35 18.35 0 01-3.6-2.19c-.34-.26-.64-.65-1-1a23 23 0 01-3.68-4.05c-1.75-2.68-4.1-7.1-4-11.24zm17.93-2.11a4.89 4.89 0 011.49-3.77 5.29 5.29 0 019 3.8 53.62 53.62 0 00-5.27 2.58c-.67-.24-1.79-1-2.6-1.43s-1.86-.71-2.66-1.18zm-6-1.24c.28-5.39 5.44-10.1 11.22-10.09s10.82 4.56 11.18 10l-4.71.87a6.53 6.53 0 00-11.12-4.22 6.64 6.64 0 00-1.28 1.88 6 6 0 00-.42 1.18l-.21.86-4.66-.5zm-6.08 0a17.85 17.85 0 015.3-11.34 17.31 17.31 0 0129.24 11.39c-.82 0-1.65-.13-2.48-.17-3.35-.17-1.84.47-2.84-2.53a12.56 12.56 0 00-20.48-5.25c-3.24 3.21-2.83 4.66-4 7.77l-4.73.19zm-6 1.85c-.66-6.75 3.28-13.73 6.59-17a23.18 23.18 0 0116.7-7c13.55 0 24.09 11.73 23.28 24-.52-.05-3.44-1.17-4.7-1.46-.76-2.55.1-2.78-1.91-7.25a18.54 18.54 0 00-33.43.09 20.56 20.56 0 00-1.2 3.37c-.24.92-.31 3.1-.71 3.69-.12.09-4.42 1.54-4.62 1.58zm21.19-25.16a24.57 24.57 0 1026.55 22.4 24.56 24.56 0 00-26.55-22.34z" transform="translate(-827 -516)"/><path class="cls-2" d="M828.29 541.23c.2 0 4.5-1.49 4.62-1.58.4-.59.47-2.77.71-3.69a20.56 20.56 0 011.2-3.37 18.54 18.54 0 0133.43-.09c2 4.47 1.15 4.7 1.91 7.25 1.26.29 4.18 1.41 4.7 1.46.81-12.28-9.73-24-23.28-24a23.18 23.18 0 00-16.7 7c-3.31 3.28-7.25 10.26-6.59 17z" transform="translate(-827 -516)"/><path class="cls-2" d="M834.28 539.38l4.73-.19c1.12-3.11.71-4.56 4-7.77a12.56 12.56 0 0120.54 5.31c1 3-.51 2.36 2.84 2.53.83 0 1.66.19 2.48.17A17.31 17.31 0 00839.58 528a17.85 17.85 0 00-5.3 11.34z" transform="translate(-827 -516)"/><path class="cls-1" d="M855.2 560.55a20.42 20.42 0 01-9.13-.45s.09-.13.11-.1l.32-.26c3-2.14 3-1.37 6.38-.08a24.32 24.32 0 012.32.89zm6.5-2.41a9.49 9.49 0 01-2.4 1.21c-1.23.55-1.68.82-3 .28-1.8-.72-3.81-1.48-5.63-2.11 0 0 .09-.15.11-.12l.42-.4c.18-.14.48-.29.66-.4 2.69-1.49 2.05-1.29 4.14-.55a57 57 0 015.75 2.09zm-6.17-3.62c3.5-2.26 3-1.79 4.92-1.2s3.6 1.06 5.29 1.58c-.23.83 0 .31-.49.77-2 1.87-2.36 1.68-4.3.84-1.31-.57-4.51-1.36-5.42-2zm4.58-2.65c.56-.41 1.31-.76 1.95-1.17a5.94 5.94 0 012-.94 47.33 47.33 0 014.88 1.18 9.51 9.51 0 01-2.06 3 55.53 55.53 0 01-6.76-2zm-14.75 7c.42-2.42 2.8-7.19 4.1-8-.22 1.67-.58 3.43-.9 5.11-.22 1.22-.19 1.22-1.19 1.81a15.41 15.41 0 01-2 1.07zm4.41-2.56a66.7 66.7 0 011.2-6.7c.32-1.42 3.59-3.32 4.09-3.43-.36 2.11-.9 4.21-1.35 6.37-.35 1.72 0 1.6-1.44 2.42a13.33 13.33 0 01-2.5 1.34zm21.42-10.88a10.77 10.77 0 01-1.51 4.3l-3.22-.68a1.91 1.91 0 01-.51-.17c-.35-.17-.1 0-.32-.25l5.56-3.2zm-16.37 7.92c.33-1.93.81-3.92 1.24-5.85.22-1 .19-2.07 1-2.47a12.08 12.08 0 012.73-.83c-.17 1.68-.84 4.22-1.2 6-.31 1.5-.42 1.31-1.58 2a8.54 8.54 0 01-2.22 1.17zm9.9-5.67a15.93 15.93 0 01.58-2.19c.15-.44.2-.65.31-1.08a1.73 1.73 0 01.38-.9 12.68 12.68 0 014.55.75l-.37.31-.32.19-5.13 2.92zm-4.86 2.85a41.6 41.6 0 011-5.07c.23-1.21 0-1.64 1.18-1.82a6.07 6.07 0 012.5-.08 38.46 38.46 0 01-1.3 4.62c-.34.93-2.44 1.85-3.37 2.35zm-16 10c.92.7 3.3 1.17 4.79 1.37 10.12 1.33 19-4.14 22.94-13.39.32-.75 1.45-3.93 1.1-4.66-.58-1.21-16.51-5.44-25.61 7.93-1.08 1.58-3.43 6.18-3.22 8.75z" transform="translate(-827 -516)"/><path class="cls-3" d="M843.91 560.52c-.21-2.57 2.14-7.17 3.22-8.75 9.1-13.37 25-9.14 25.61-7.93.35.73-.78 3.91-1.1 4.66-3.93 9.25-12.82 14.72-22.94 13.39-1.49-.2-3.87-.67-4.79-1.37zm-2.08 1.14l.59.38c2.72 1.42 8 2 11.1 1.75a23 23 0 0017.63-10.51 22.25 22.25 0 003.64-10.66c-11-5-23.7-.72-29.29 8.39a23.31 23.31 0 00-3.67 10.65z" transform="translate(-827 -516)"/><path class="cls-2" d="M840.36 539.33l4.66.5.21-.86a6 6 0 01.42-1.18 6.64 6.64 0 011.28-1.88 6.53 6.53 0 0111.12 4.22l4.71-.87c-.36-5.46-5.46-10-11.18-10s-10.94 4.7-11.22 10.09z" transform="translate(-827 -516)"/><path class="cls-3" d="M828.39 542.68c-.06 4.14 2.29 8.56 4 11.24a23 23 0 003.68 4.05c.34.31.64.7 1 1a18.35 18.35 0 003.6 2.19l.18-2c-4.84-1.68-11-10.9-10.55-15.47 1.92-1.22 7.25-1.68 10-1.35 5.46.65 7.11 2.4 8.79 2.75l1.23-1c-.57-.82-3.72-2.06-4.53-2.34a24 24 0 00-5.73-1.23c-3.31-.3-9.56.48-11.7 2.16z" transform="translate(-827 -516)"/><path class="cls-2" d="M846.32 540.57c.8.47 1.85.79 2.66 1.18s1.93 1.19 2.6 1.43a53.62 53.62 0 015.27-2.58 5.29 5.29 0 00-9-3.8 4.89 4.89 0 00-1.49 3.77z" transform="translate(-827 -516)"/><path class="cls-4" d="M849.77 556.31a13.33 13.33 0 002.5-1.34c1.43-.82 1.09-.7 1.44-2.42.45-2.16 1-4.26 1.35-6.37-.5.11-3.77 2-4.09 3.43a66.7 66.7 0 00-1.2 6.7zm11.93 1.83a57 57 0 00-5.75-2.09c-2.09-.74-1.45-.94-4.14.55-.18.11-.48.26-.66.4l-.42.4s-.07.08-.11.12c1.82.63 3.83 1.39 5.63 2.11 1.37.54 1.82.27 3-.28a9.49 9.49 0 002.4-1.21zm-6.88-4.79a8.54 8.54 0 002.22-1.17c1.16-.65 1.27-.46 1.58-2 .36-1.8 1-4.34 1.2-6a12.08 12.08 0 00-2.73.83c-.84.4-.81 1.46-1 2.47-.43 1.93-.91 3.92-1.24 5.85zm.71 1.17c.91.63 4.11 1.42 5.42 2 1.94.84 2.3 1 4.3-.84.5-.46.26.06.49-.77-1.69-.52-3.42-1-5.29-1.58s-1.42-1.06-4.92 1.2zm4.58-2.65a55.53 55.53 0 006.76 2 9.51 9.51 0 002.06-3 47.33 47.33 0 00-4.88-1.18 5.94 5.94 0 00-2 .94c-.64.41-1.39.76-1.95 1.17z" transform="translate(-827 -516)"/><path class="cls-2" d="M834.07 551a10.66 10.66 0 002.23 3l6.63-2.17c-.48-.35-3.38-2.08-4-2.07a41.79 41.79 0 00-4.88 1.21zm9.17-.5c-.15-1.35-.94-5.74-1.46-6.65a9.23 9.23 0 00-3.26-.37c.31 1.47.85 3.08 1.26 4.5.29 1 .66 1 1.41 1.4a21.91 21.91 0 002 1.12z" transform="translate(-827 -516)"/><path class="cls-4" d="M859.86 550.53c.93-.5 3-1.42 3.37-2.35a38.46 38.46 0 001.3-4.62 6.07 6.07 0 00-2.5.08c-1.16.18-.95.61-1.18 1.82a41.6 41.6 0 00-1 5.07zm-4.66 10.02a24.32 24.32 0 00-2.32-.89c-3.39-1.29-3.37-2.06-6.38.08l-.32.26s-.07.06-.11.1a20.42 20.42 0 009.13.45z" transform="translate(-827 -516)"/><path class="cls-5" d="M844.48 550.17a12.46 12.46 0 001.35-1.64c.58-.71 1.12-.89 1-2s-.31-1.32-1.31-1.7a10.71 10.71 0 00-2.28-.69l1.24 6z" transform="translate(-827 -516)"/><path class="cls-4" d="M845.36 558.87a15.41 15.41 0 002-1.07c1-.59 1-.59 1.19-1.81.32-1.68.68-3.44.9-5.11-1.3.8-3.68 5.57-4.1 8z" transform="translate(-827 -516)"/><path d="M832.51 544.26c.4.39 5.23 3.19 5.87 3.46l-1.16-4.17a12.55 12.55 0 00-4.71.71z" transform="translate(-827 -516)" fill="#bddf42" fill-rule="evenodd"/><path class="cls-5" d="M837.27 554.93c.24.45-.07.06.42.59.65.7 1.9 1.87 2.94 1.54s.94-.51 1.35-1.68a14.36 14.36 0 00.74-2.09l-5.45 1.64z" transform="translate(-827 -516)"/><path class="cls-4" d="M864.72 547.68l5.13-2.92.32-.19.37-.31a12.68 12.68 0 00-4.55-.75 1.73 1.73 0 00-.38.9c-.11.43-.16.64-.31 1.08a15.93 15.93 0 00-.58 2.19z" transform="translate(-827 -516)"/><path class="cls-5" d="M833.27 549.8a22 22 0 002.26-.49 5.11 5.11 0 002-.66c-1-.62-1.7-1-2.75-1.58a16.83 16.83 0 00-2.92-1.61c.26 1.8 1.06 2.88 1.46 4.34z" transform="translate(-827 -516)"/><path class="cls-4" d="M865.63 548.63c.22.24 0 .08.32.25a1.91 1.91 0 00.51.17l3.22.68a10.77 10.77 0 001.51-4.3l-5.56 3.2z" transform="translate(-827 -516)"/><path class="cls-2" d="M880.5 516h.5a.52.52 0 01.52.52v48.06a.52.52 0 01-.52.52h-.54a.52.52 0 01-.52-.52v-48.06a.52.52 0 01.52-.52z" transform="translate(-827 -516)"/></svg>