<svg data-name="Layer 1" xmlns="http://www.w3.org/2000/svg" viewBox="0 0 6.54 6.54"><path d="M3.27 0A3.27 3.27 0 110 3.27 3.26 3.26 0 013.27 0zm0 .47a2.8 2.8 0 11-2.8 2.8 2.8 2.8 0 012.8-2.8zm-.8 1.17v1.58h.8a.76.76 0 00.57-.24.73.73 0 00.23-.56.75.75 0 00-.23-.56.79.79 0 00-.57-.23zm0 2v1.49a.24.24 0 01-.25.25.23.23 0 01-.24-.25V1.36a.23.23 0 01.24-.24h1.05a1.22 1.22 0 01.92.38 1.3 1.3 0 01-.92 2.21l1.25 1.25a.21.21 0 01.08.17.24.24 0 01-.25.25.29.29 0 01-.18-.07L2.52 3.65z" fill="#336715" fill-rule="evenodd"/></svg>